<?xml version="1.0" encoding="UTF-8" standalone="no"?>
<!DOCTYPE svg PUBLIC "-//W3C//DTD SVG 1.1//EN" "http://www.w3.org/Graphics/SVG/1.1/DTD/svg11.dtd">
<svg width="100%" height="100%" viewBox="0 0 2040 1536" version="1.1" xmlns="http://www.w3.org/2000/svg" xmlns:xlink="http://www.w3.org/1999/xlink" xml:space="preserve" xmlns:serif="http://www.serif.com/" style="fill-rule:evenodd;clip-rule:evenodd;stroke-linejoin:round;stroke-miterlimit:2;">
    <g id="Foreground">
        <g id="tower" transform="matrix(1,0,0,1,-8,2)">
            <g transform="matrix(1,0,0,1,2,1)">
                <rect x="419" y="615" width="105" height="576" style="fill:rgb(235,226,197);"/>
            </g>
            <g transform="matrix(0.580952,0,0,1.003472,116.85416,-2.620146)">
                <rect x="419" y="615" width="105" height="576" style="fill:rgb(206,180,155);"/>
            </g>
            <g transform="matrix(0.860465,0,0,1.144928,67.651163,-98.623188)">
                <path d="M449.642,702.772C449.223,701.514 449,700.197 449,698.842L449,662.158C449,653.24 458.634,646 470.5,646C482.366,646 492,653.24 492,662.158L492,698.842C492,700.197 491.777,701.514 491.358,702.772L449.642,702.772Z" style="fill:rgb(128,89,72);"/>
            </g>
            <g transform="matrix(0.465116,0,0,1.144928,170.935998,-101.720716)">
                <path d="M449.642,702.772C449.223,701.514 449,700.197 449,698.842L449,662.158C449,653.24 458.634,646 470.5,646C482.366,646 492,653.24 492,662.158L492,698.842C492,700.197 491.777,701.514 491.358,702.772L449.642,702.772Z" style="fill:rgb(128,89,72);"/>
            </g>
            <g transform="matrix(1,0,0,1,3,-3)">
                <path d="M535,621L418,618L445,354L503,575L535,621Z" style="fill:rgb(192,100,85);"/>
            </g>
            <g transform="matrix(1,0,0,1,3,-3)">
                <path d="M445,355L388,573L354,619L418,618L430,568L445,355Z" style="fill:rgb(144,80,71);"/>
            </g>
        </g>
        <g id="tree" transform="matrix(0.476064,0,0,0.476064,828.390808,695.068023)">
            <path d="M56,467C56,467 105.826,631.59 118,653C125.611,666.386 90,649 90,649C90,649 132.83,773.91 150,795C154.967,810.332 149.648,816.049 118,804C118,804 101.322,806.423 124,848C146.678,889.577 171.251,958.779 188,983C190.336,999.382 196.779,996.379 177,1000C157.221,1003.621 132,984 132,984L207,1150C207,1150 67.444,1207.167 -14,1142C3.637,1064.18 -8,710 -8,710L-1,710L22,653L-10,658C-10,658 45.887,546.183 56,467Z" style="fill:rgb(62,118,90);"/>
        </g>
        <g id="House">
            <g>
                <g transform="matrix(1.121291,0,0,1,-67.193831,-9)">
                    <path d="M574.318,943C576.065,943.359 661.195,1049.823 661.33,1049.062C661.393,1048.706 660.963,1226.2 661,1226L511.191,1200L513.075,1016L574.318,943Z" style="fill:rgb(127,86,66);"/>
                </g>
                <g transform="matrix(0.947644,0,0,1.010695,47.554974,-6.15508)">
                    <rect x="660" y="1043" width="191" height="187" style="fill:rgb(170,121,83);"/>
                </g>
                <g>
                    <g transform="matrix(1,0,0,1,1.756694,-0.641748)">
                        <rect x="671" y="905" width="28" height="29" style="fill:rgb(249,237,215);"/>
                    </g>
                    <g transform="matrix(0.428571,0,0,1,373.169376,-0.653688)">
                        <rect x="671" y="905" width="28" height="29" style="fill:rgb(228,211,183);"/>
                    </g>
                </g>
                <g transform="matrix(1,0,0,1,-1,4)">
                    <path d="M780,927L879,1046L674,1046L574,925L780,927Z" style="fill:rgb(220,127,94);"/>
                </g>
                <g>
                    <g transform="matrix(-1.071199,0.006289,-0.006231,-1.061298,1518.095058,2045.314925)">
                        <path d="M727.236,979.079L729,977L757,1010L727.512,1010C727.495,1002.609 727.29,983.882 727.236,979.079Z" style="fill:rgb(122,83,66);"/>
                    </g>
                    <g transform="matrix(-1.338117,0.033819,-0.02667,-1.055255,1726.013824,1951.376265)">
                        <path d="M744.551,977.42L702,977L725.731,945.34L746.25,946L744.551,977.42Z" style="fill:rgb(196,102,76);"/>
                    </g>
                    <g transform="matrix(0.98,0,0,1.050847,18.58,-57.762712)">
                        <path d="M760.633,960.903C760.633,960.903 774.108,979.852 774.668,980.108C775.324,980.409 775.939,1018.952 775.939,1018.952L729,1018C729,1018 728.345,982.901 728.491,982.574C728.759,981.973 749.408,959.952 749.408,959.952L760.633,960.903Z" style="fill:rgb(173,123,87);"/>
                    </g>
                    <g transform="matrix(1.1,0,0,1.086957,-75.7,-95.217391)">
                        <rect x="747" y="980" width="20" height="23" style="fill:rgb(113,84,68);"/>
                    </g>
                    <g transform="matrix(0.880686,-0.883029,0.708045,0.706167,-638.486052,991.916056)">
                        <path d="M813.076,963L785.207,963C783.437,963 782,961.208 782,959C782,956.792 783.437,955 785.207,955L815.793,955C816.48,955 817.117,955.27 817.639,955.729C818.967,956.334 819.861,957.991 819.734,959.831L817.107,997.834C816.955,1000.034 815.4,1001.665 813.636,1001.476C811.872,1001.286 810.564,999.347 810.716,997.147L813.076,963Z" style="fill:rgb(237,140,105);"/>
                    </g>
                </g>
                <g>
                    <path d="M595,1015.5L595,1032.5C595,1036.087 592.087,1039 588.5,1039L575.5,1039C571.913,1039 569,1036.087 569,1032.5L569,1015.5C569,1011.913 571.913,1009 575.5,1009L588.5,1009C592.087,1009 595,1011.913 595,1015.5Z" style="fill:rgb(105,69,61);"/>
                    <g transform="matrix(0.961538,0,0,1,-19.434992,64.307253)">
                        <path d="M595,1015.25L595,1032.75C595,1036.199 592.087,1039 588.5,1039L575.5,1039C571.913,1039 569,1036.199 569,1032.75L569,1015.25C569,1011.801 571.913,1009 575.5,1009L588.5,1009C592.087,1009 595,1011.801 595,1015.25Z" style="fill:rgb(105,69,61);"/>
                    </g>
                    <g transform="matrix(0.961538,0,0,1,21.149806,64.307253)">
                        <path d="M595,1015.25L595,1032.75C595,1036.199 592.087,1039 588.5,1039L575.5,1039C571.913,1039 569,1036.199 569,1032.75L569,1015.25C569,1011.801 571.913,1009 575.5,1009L588.5,1009C592.087,1009 595,1011.801 595,1015.25Z" style="fill:rgb(105,69,61);"/>
                    </g>
                    <g transform="matrix(0.961538,0,0,1,61.241597,64.307253)">
                        <path d="M595,1015.25L595,1032.75C595,1036.199 592.087,1039 588.5,1039L575.5,1039C571.913,1039 569,1036.199 569,1032.75L569,1015.25C569,1011.801 571.913,1009 575.5,1009L588.5,1009C592.087,1009 595,1011.801 595,1015.25Z" style="fill:rgb(105,69,61);"/>
                    </g>
                </g>
                <g>
                    <g transform="matrix(1,0,0,1,1,-3)">
                        <path d="M725,1080.25L725,1095.75C725,1099.751 721.751,1103 717.75,1103L703.25,1103C699.249,1103 696,1099.751 696,1095.75L696,1080.25C696,1076.249 699.249,1073 703.25,1073L717.75,1073C721.751,1073 725,1076.249 725,1080.25Z" style="fill:rgb(105,69,61);"/>
                    </g>
                    <g transform="matrix(1,0,0,1,53.452511,-3)">
                        <path d="M725,1080.25L725,1095.75C725,1099.751 721.751,1103 717.75,1103L703.25,1103C699.249,1103 696,1099.751 696,1095.75L696,1080.25C696,1076.249 699.249,1073 703.25,1073L717.75,1073C721.751,1073 725,1076.249 725,1080.25Z" style="fill:rgb(105,69,61);"/>
                    </g>
                    <g transform="matrix(1,0,0,1,105.284074,-3)">
                        <path d="M725,1080.25L725,1095.75C725,1099.751 721.751,1103 717.75,1103L703.25,1103C699.249,1103 696,1099.751 696,1095.75L696,1080.25C696,1076.249 699.249,1073 703.25,1073L717.75,1073C721.751,1073 725,1076.249 725,1080.25Z" style="fill:rgb(105,69,61);"/>
                    </g>
                </g>
                <g transform="matrix(1.022923,0,0,1.022923,-19.713467,-27.266476)">
                    <g transform="matrix(1.091503,0,0,1,-48.941176,0)">
                        <rect x="513" y="1142" width="153" height="61" style="fill:rgb(206,190,165);"/>
                    </g>
                    <g transform="matrix(1,0,0,1,14,0)">
                        <rect x="664" y="1142" width="182" height="95" style="fill:rgb(250,243,215);"/>
                    </g>
                </g>
                <g transform="matrix(1,0,0,1.142857,425.815948,-38.89891)">
                    <path d="M376,1057.719L376,1141.281C376,1147.197 370.511,1152 363.75,1152L339.25,1152C332.489,1152 327,1147.197 327,1141.281L327,1057.719C327,1051.803 332.489,1047 339.25,1047L363.75,1047C370.511,1047 376,1051.803 376,1057.719Z" style="fill:rgb(147,100,72);"/>
                </g>
                <g transform="matrix(0.465202,0.56543,-0.782566,0.643849,955.205105,10.981638)">
                    <path d="M651.486,871L668.162,960.752C668.772,964.036 665.446,967.048 660.738,967.474C656.031,967.9 651.714,965.579 651.104,962.295L633.336,866.666C633.117,866.137 633,865.578 633,865C633,864.745 633.023,864.493 633.067,864.246C633.369,861.47 636.427,859.125 640.539,858.753C641.852,858.635 643.136,858.73 644.316,859L846.4,859C851.146,859 855,861.689 855,865C855,868.311 851.146,871 846.4,871L651.486,871Z" style="fill:rgb(178,92,65);"/>
                </g>
            </g>
            <g>
                <g transform="matrix(1.075085,0,0,1,-15.317406,0)">
                    <path d="M497,1164L207,1130L204,853L358,731L492,867L497,1164Z" style="fill:rgb(235,226,197);"/>
                </g>
                <g>
                    <path d="M373,876C373,877.656 371.656,879 370,879L332,879C330.344,879 329,877.656 329,876C329,874.344 330.344,873 332,873L370,873C371.656,873 373,874.344 373,876Z" style="fill:rgb(195,184,167);"/>
                    <g transform="matrix(0.291667,0,0,1.055556,223.833333,-46.5)">
                        <rect x="316" y="819" width="72" height="54" style="fill:rgb(196,82,72);"/>
                    </g>
                    <g transform="matrix(0.305556,0,0,1.055556,269.552269,-46.5)">
                        <rect x="316" y="819" width="72" height="54" style="fill:rgb(196,82,72);"/>
                    </g>
                    <g transform="matrix(0.416667,0,0,1.055556,205.119266,-46.5)">
                        <rect x="316" y="819" width="72" height="54" style="fill:rgb(196,82,72);"/>
                    </g>
                    <g transform="matrix(1.304348,0,0,0.982759,-73.869565,15.086207)">
                        <path d="M315,840.912L315,817L324.2,817L324.2,840.912L315,840.912ZM327.267,817L338,817L338,840.912L327.267,840.912L327.267,817ZM338,844.982L338,875L327.267,875L327.267,844.982L338,844.982ZM324.2,875L315,875L315,844.982L324.2,844.982L324.2,875Z" style="fill:rgb(114,162,172);"/>
                    </g>
                </g>
                <g transform="matrix(1,0,0,1,-86.0835,103.760924)">
                    <path d="M373,876C373,877.656 371.656,879 370,879L332,879C330.344,879 329,877.656 329,876C329,874.344 330.344,873 332,873L370,873C371.656,873 373,874.344 373,876Z" style="fill:rgb(195,184,167);"/>
                    <g transform="matrix(0.291667,0,0,1.055556,223.833333,-46.5)">
                        <rect x="316" y="819" width="72" height="54" style="fill:rgb(196,82,72);"/>
                    </g>
                    <g transform="matrix(0.305556,0,0,1.055556,269.552269,-46.5)">
                        <rect x="316" y="819" width="72" height="54" style="fill:rgb(196,82,72);"/>
                    </g>
                    <g transform="matrix(0.416667,0,0,1.055556,205.119266,-46.5)">
                        <rect x="316" y="819" width="72" height="54" style="fill:rgb(196,82,72);"/>
                    </g>
                    <g transform="matrix(1.304348,0,0,0.982759,-73.869565,15.086207)">
                        <path d="M315,840.912L315,817L324.2,817L324.2,840.912L315,840.912ZM327.267,817L338,817L338,840.912L327.267,840.912L327.267,817ZM338,844.982L338,875L327.267,875L327.267,844.982L338,844.982ZM324.2,875L315,875L315,844.982L324.2,844.982L324.2,875Z" style="fill:rgb(114,162,172);"/>
                    </g>
                </g>
                <g transform="matrix(1,0,0,1,-86.0835,219.313021)">
                    <path d="M373,876C373,877.656 371.656,879 370,879L332,879C330.344,879 329,877.656 329,876C329,874.344 330.344,873 332,873L370,873C371.656,873 373,874.344 373,876Z" style="fill:rgb(195,184,167);"/>
                    <g transform="matrix(0.291667,0,0,1.055556,223.833333,-46.5)">
                        <rect x="316" y="819" width="72" height="54" style="fill:rgb(196,82,72);"/>
                    </g>
                    <g transform="matrix(0.305556,0,0,1.055556,269.552269,-46.5)">
                        <rect x="316" y="819" width="72" height="54" style="fill:rgb(196,82,72);"/>
                    </g>
                    <g transform="matrix(0.416667,0,0,1.055556,205.119266,-46.5)">
                        <rect x="316" y="819" width="72" height="54" style="fill:rgb(196,82,72);"/>
                    </g>
                    <g transform="matrix(1.304348,0,0,0.982759,-73.869565,15.086207)">
                        <path d="M315,840.912L315,817L324.2,817L324.2,840.912L315,840.912ZM327.267,817L338,817L338,840.912L327.267,840.912L327.267,817ZM338,844.982L338,875L327.267,875L327.267,844.982L338,844.982ZM324.2,875L315,875L315,844.982L324.2,844.982L324.2,875Z" style="fill:rgb(114,162,172);"/>
                    </g>
                </g>
                <g transform="matrix(1,0,0,1,0.610331,103.58471)">
                    <path d="M373,876C373,877.656 371.656,879 370,879L332,879C330.344,879 329,877.656 329,876C329,874.344 330.344,873 332,873L370,873C371.656,873 373,874.344 373,876Z" style="fill:rgb(195,184,167);"/>
                    <g transform="matrix(0.291667,0,0,1.055556,223.833333,-46.5)">
                        <rect x="316" y="819" width="72" height="54" style="fill:rgb(196,82,72);"/>
                    </g>
                    <g transform="matrix(0.305556,0,0,1.055556,269.552269,-46.5)">
                        <rect x="316" y="819" width="72" height="54" style="fill:rgb(196,82,72);"/>
                    </g>
                    <g transform="matrix(0.416667,0,0,1.055556,205.119266,-46.5)">
                        <rect x="316" y="819" width="72" height="54" style="fill:rgb(196,82,72);"/>
                    </g>
                    <g transform="matrix(1.304348,0,0,0.982759,-73.869565,15.086207)">
                        <path d="M315,840.912L315,817L324.2,817L324.2,840.912L315,840.912ZM327.267,817L338,817L338,840.912L327.267,840.912L327.267,817ZM338,844.982L338,875L327.267,875L327.267,844.982L338,844.982ZM324.2,875L315,875L315,844.982L324.2,844.982L324.2,875Z" style="fill:rgb(114,162,172);"/>
                    </g>
                </g>
                <g transform="matrix(1,0,0,1.142857,0,-156.571429)">
                    <path d="M376,1057.719L376,1141.281C376,1147.197 370.511,1152 363.75,1152L339.25,1152C332.489,1152 327,1147.197 327,1141.281L327,1057.719C327,1051.803 332.489,1047 339.25,1047L363.75,1047C370.511,1047 376,1051.803 376,1057.719Z" style="fill:rgb(147,100,72);"/>
                </g>
                <g transform="matrix(1,0,0,1,84.871007,103.878789)">
                    <path d="M373,876C373,877.656 371.656,879 370,879L332,879C330.344,879 329,877.656 329,876C329,874.344 330.344,873 332,873L370,873C371.656,873 373,874.344 373,876Z" style="fill:rgb(195,184,167);"/>
                    <g transform="matrix(0.291667,0,0,1.055556,223.833333,-46.5)">
                        <rect x="316" y="819" width="72" height="54" style="fill:rgb(196,82,72);"/>
                    </g>
                    <g transform="matrix(0.305556,0,0,1.055556,269.552269,-46.5)">
                        <rect x="316" y="819" width="72" height="54" style="fill:rgb(196,82,72);"/>
                    </g>
                    <g transform="matrix(0.416667,0,0,1.055556,205.119266,-46.5)">
                        <rect x="316" y="819" width="72" height="54" style="fill:rgb(196,82,72);"/>
                    </g>
                    <g transform="matrix(1.304348,0,0,0.982759,-73.869565,15.086207)">
                        <path d="M315,840.912L315,817L324.2,817L324.2,840.912L315,840.912ZM327.267,817L338,817L338,840.912L327.267,840.912L327.267,817ZM338,844.982L338,875L327.267,875L327.267,844.982L338,844.982ZM324.2,875L315,875L315,844.982L324.2,844.982L324.2,875Z" style="fill:rgb(114,162,172);"/>
                    </g>
                </g>
                <g transform="matrix(1,0,0,1,84.871007,219.430886)">
                    <path d="M373,876C373,877.656 371.656,879 370,879L332,879C330.344,879 329,877.656 329,876C329,874.344 330.344,873 332,873L370,873C371.656,873 373,874.344 373,876Z" style="fill:rgb(195,184,167);"/>
                    <g transform="matrix(0.291667,0,0,1.055556,223.833333,-46.5)">
                        <rect x="316" y="819" width="72" height="54" style="fill:rgb(196,82,72);"/>
                    </g>
                    <g transform="matrix(0.305556,0,0,1.055556,269.552269,-46.5)">
                        <rect x="316" y="819" width="72" height="54" style="fill:rgb(196,82,72);"/>
                    </g>
                    <g transform="matrix(0.416667,0,0,1.055556,205.119266,-46.5)">
                        <rect x="316" y="819" width="72" height="54" style="fill:rgb(196,82,72);"/>
                    </g>
                    <g transform="matrix(1.304348,0,0,0.982759,-73.869565,15.086207)">
                        <path d="M315,840.912L315,817L324.2,817L324.2,840.912L315,840.912ZM327.267,817L338,817L338,840.912L327.267,840.912L327.267,817ZM338,844.982L338,875L327.267,875L327.267,844.982L338,844.982ZM324.2,875L315,875L315,844.982L324.2,844.982L324.2,875Z" style="fill:rgb(114,162,172);"/>
                    </g>
                </g>
                <g transform="matrix(0.761029,0,0,1,47.183824,0)">
                    <rect x="-62" y="861" width="272" height="269" style="fill:rgb(207,189,165);"/>
                </g>
                <path d="M362,712L-3,722L-3,877L161,887L362,712" style="fill:rgb(134,86,71);"/>
                <path d="M349,744L522,905L544,892L361,724L349,744Z" style="fill:rgb(107,74,59);"/>
                <g transform="matrix(0.618577,-0.52592,0.526283,0.619003,-407.85769,420.623035)">
                    <path d="M473.802,906L168.507,906C162.708,906 158,901.295 158,895.5C158,889.705 162.708,885 168.507,885L482.418,885C488.014,884.587 492.989,888.672 493.626,894.292L527.018,1189.303C527.67,1195.061 523.521,1200.265 517.758,1200.917C511.996,1201.568 506.788,1197.422 506.137,1191.663L473.802,906Z" style="fill:rgb(153,109,84);"/>
                </g>
            </g>
        </g>
        <g transform="matrix(1.456481,0,0,1,-271.481481,56)">
            <path d="M946.05,1202.922C1055.079,1209.72 1000,1308.826 1000,1360C1000,1520.607 758.034,1651 460,1651C161.966,1651 -80,1520.607 -80,1360C-80,1199.393 18.243,1041.109 185.366,1052C476.926,1071 655.281,1162.593 946.05,1202.922Z" style="fill:rgb(115,172,93);"/>
        </g>
        <path d="M2068,1235C2068,1235 1082.403,1193.79 866,1303C649.597,1412.21 706,1660 706,1660L1379,1748L2043,1635L2068,1235Z" style="fill:rgb(169,207,94);"/>
        <g id="tree1" serif:id="tree" transform="matrix(0.297178,0,0,0.297178,912.276934,900.89413)">
            <path d="M55.265,474.597C55.482,471.683 55.726,469.144 56,467C56,467 56.275,467.908 56.788,469.597C57.302,467.908 57.577,467 57.577,467C57.864,469.251 58.154,471.939 58.447,475.038C68.609,508.317 107.448,634.442 118,653C125.611,666.386 90,649 90,649C90,649 132.83,773.91 150,795C154.967,810.332 149.648,816.049 118,804C118,804 101.322,806.423 124,848C146.678,889.577 171.251,958.779 188,983C190.336,999.382 196.779,996.379 177,1000C157.221,1003.621 132,984 132,984L207,1150C102.824,1206.313 2.828,1204.289 -93.423,1150L-18.423,984C-18.423,984 -43.644,1003.621 -63.423,1000C-83.202,996.379 -76.759,999.382 -74.423,983C-57.674,958.779 -33.101,889.577 -10.423,848C12.255,806.423 -4.423,804 -4.423,804C-36.071,816.049 -41.39,810.332 -36.423,795C-19.253,773.91 23.577,649 23.577,649C23.577,649 -12.034,666.386 -4.423,653C6.176,634.359 45.316,507.187 55.265,474.597Z" style="fill:rgb(61,117,89);"/>
        </g>
        <path id="tree2" serif:id="tree" d="M56,467C56,467 105.826,631.59 118,653C125.611,666.386 90,649 90,649C90,649 132.83,773.91 150,795C154.967,810.332 149.648,816.049 118,804C118,804 101.322,806.423 124,848C146.678,889.577 171.251,958.779 188,983C190.336,999.382 196.779,996.379 177,1000C157.221,1003.621 132,984 132,984L207,1150C207,1150 67.444,1207.167 -14,1142C3.637,1064.18 -8,710 -8,710L-1,710L22,653L-10,658C-10,658 45.887,546.183 56,467Z" style="fill:rgb(64,123,93);"/>
    </g>
</svg>
