<?xml version="1.0" encoding="UTF-8" standalone="no"?>
<!DOCTYPE svg PUBLIC "-//W3C//DTD SVG 1.1//EN" "http://www.w3.org/Graphics/SVG/1.1/DTD/svg11.dtd">
<svg width="100%" height="100%" viewBox="0 0 2040 1536" version="1.1" xmlns="http://www.w3.org/2000/svg" xmlns:xlink="http://www.w3.org/1999/xlink" xml:space="preserve" xmlns:serif="http://www.serif.com/" style="fill-rule:evenodd;clip-rule:evenodd;stroke-linejoin:round;stroke-miterlimit:2;">
    <g id="Mountains">
        <g id="Mountain-1">
            <path d="M236,515C236,515 207.84,526.612 164,456C118.928,406.663 99.384,378.679 89,380C78.616,381.321 -4,479 -4,479L-2,712C-2,712 96.312,716.466 236,515Z" style="fill:rgb(179,214,221);"/>
            <path d="M189,487C189,487 100.137,373.301 85,380C69.863,386.699 45.679,489.387 48,504C60.794,511.206 107,544 107,544L133,506C133,506 158.608,519.183 167,520C175.392,520.817 174,520 174,520L189,487Z" style="fill:rgb(245,250,253);"/>
            <path d="M0,464.015C0,464.015 69.003,383.396 85,380C84.813,392.556 67.156,450.134 63,457C70.636,452.713 88.582,446.885 89,452C89.418,457.115 50,506 50,506L-2,517L0,464.015Z" style="fill:rgb(197,226,230);"/>
        </g>
        <g id="Mountain" transform="matrix(1.066552,0,0,1.066552,-70.977741,-33.389695)">
            <g transform="matrix(1,0,0,1,-6,5)">
                <path d="M495,899C495,899 604.875,871.76 792,612C866.931,507.984 910.366,496.708 910.366,496.708C910.366,496.708 1005.13,611.825 1117,735C1223.704,854.26 1628,1248 1628,1248L486,1220L495,899Z" style="fill:rgb(129,175,191);"/>
                <clipPath id="_clip1">
                    <path d="M495,899C495,899 604.875,871.76 792,612C866.931,507.984 910.366,496.708 910.366,496.708C910.366,496.708 1005.13,611.825 1117,735C1223.704,854.26 1628,1248 1628,1248L486,1220L495,899Z"/>
                </clipPath>
                <g clip-path="url(#_clip1)">
                    <g transform="matrix(1,0,0,1,6,-5)">
                        <path d="M905,684L907,766L887,1028L831,1146L830,1230L1298,1275L1560,1242L1651,1231C1651,1231 1480.723,1095.458 1429,1031C1377.277,966.542 1275,844 1275,844C1275,844 1206.739,856.144 1191,833C1175.261,809.856 1028,629 1028,629C962.079,591.242 923.073,614.063 905,684Z" style="fill:rgb(160,193,208);"/>
                    </g>
                    <path d="M906,690L950,636C950,636 1008.626,688.394 1014,682C1019.374,675.606 1035,634 1035,634C1035,634 933.701,489.717 910,490C886.299,490.283 849,673 849,673L906,690Z" style="fill:rgb(242,253,250);"/>
                    <path d="M911,492L887,582C887,582 926.501,614.161 904,687C903.63,688.196 815,662 815,662L766,655C766,655 870.949,479.066 911,492Z" style="fill:rgb(197,226,230);"/>
                </g>
            </g>
            <g>
                <path d="M1206,849L1269,840L1277,1060L1203,992C1203,992 1215.215,944.666 1202,928C1194.155,904.73 1171.083,864.654 1206,849Z" style="fill:rgb(155,191,203);"/>
                <g transform="matrix(1.002473,0,0,1.015267,-4.088068,-18.885496)">
                    <path d="M1271,844C1271,844 1463.452,1081.208 1503,1106C1542.548,1130.792 1653,1237 1653,1237L1545,1237C1545,1237 1333.075,1073.777 1295,1064C1270.885,1027.645 1264,1024 1264,1024C1264,1024 1278.924,942.744 1268,928C1257.076,913.256 1228.997,882.164 1271,844Z" style="fill:rgb(168,209,215);"/>
                </g>
            </g>
        </g>
        <g id="Mountain1" serif:id="Mountain">
            <g transform="matrix(1,0,0,1,-16,-6)">
                <path d="M-22,760C-22,760 296.023,488.31 387,339C477.977,189.69 520.278,218.036 576,301C631.722,383.964 679.933,492.168 706,520C732.067,547.832 742,704 742,704L733,785L534,904L-22,760Z" style="fill:rgb(126,175,190);"/>
            </g>
            <g transform="matrix(1,0,0,1,-23,-8)">
                <path d="M515,236C515,236 456.479,219.078 422,290C417.24,299.791 380.75,338.274 381,345C381.25,351.726 320.33,410.708 321,426C321.67,441.292 367,419 367,419L392,407L423,459C423,459 454.853,455.783 470,437C485.147,418.217 505,359 505,359L510,261L515,236Z" style="fill:rgb(199,228,234);"/>
            </g>
            <path d="M489,227C489,227 525.349,610.039 674,775C746.752,690.01 800,605 800,605C800,605 729.412,582.728 677,464C624.588,345.272 523.315,232.709 489,227Z" style="fill:rgb(174,209,218);"/>
            <g>
                <path d="M437.42,458.158L471,358C471,358 462.638,351.295 463,345C463.362,338.705 475,320 475,320C475,320 482.147,227.778 492,227C501.853,226.222 557.667,268.646 607,338C665.507,405.899 666,438 666,438C666,438 597.982,431.322 592,411C586.018,390.678 573,464 573,464L567,477C567,477 518.987,421.627 505,422C491.013,422.373 437.42,458.158 437.42,458.158Z" style="fill:rgb(247,251,253);"/>
            </g>
        </g>
    </g>
</svg>
